{
    "asset" : {
        "generator" : "Khronos glTF Blender I/O v1.7.33",
        "version" : "2.0"
    },
    "scene" : 0,
    "scenes" : [
        {
            "name" : "Scene",
            "nodes" : [
                1
            ]
        }
    ],
    "nodes" : [
        {
            "mesh" : 0,
            "name" : "Circle.003",
            "rotation" : [
                0,
                -0.20708484947681427,
                0,
                0.9783229827880859
            ],
            "scale" : [
                0.609803318977356,
                0.6098031401634216,
                0.609803318977356
            ],
            "translation" : [
                0.0559745728969574,
                0.1488649696111679,
                -0.2003757506608963
            ]
        },
        {
            "children" : [
                0
            ],
            "mesh" : 1,
            "name" : "Plane.024",
            "rotation" : [
                0.6796547770500183,
                0.19511379301548004,
                0.19511385262012482,
                0.6796547770500183
            ],
            "scale" : [
                1.4725136756896973,
                1.4725137948989868,
                1.4725136756896973
            ],
            "translation" : [
                -0.38537198305130005,
                0.3740676939487457,
                0.03288488835096359
            ]
        }
    ],
    "materials" : [
        {
            "doubleSided" : true,
            "name" : "Material.024",
            "pbrMetallicRoughness" : {
                "baseColorFactor" : [
                    0.8000000715255737,
                    0.12416410446166992,
                    0.038876548409461975,
                    1
                ],
                "metallicFactor" : 0,
                "roughnessFactor" : 0.30000001192092896
            }
        },
        {
            "doubleSided" : true,
            "name" : "kuning.003",
            "pbrMetallicRoughness" : {
                "metallicFactor" : 0,
                "roughnessFactor" : 0.30000001192092896
            }
        }
    ],
    "meshes" : [
        {
            "name" : "Circle.007",
            "primitives" : [
                {
                    "attributes" : {
                        "POSITION" : 0,
                        "NORMAL" : 1
                    },
                    "indices" : 2,
                    "material" : 0
                }
            ]
        },
        {
            "name" : "Plane.051",
            "primitives" : [
                {
                    "attributes" : {
                        "POSITION" : 3,
                        "NORMAL" : 4,
                        "TEXCOORD_0" : 5
                    },
                    "indices" : 6,
                    "material" : 1
                }
            ]
        }
    ],
    "accessors" : [
        {
            "bufferView" : 0,
            "componentType" : 5126,
            "count" : 4676,
            "max" : [
                0.8751534223556519,
                0.16414576768875122,
                0.09016047418117523
            ],
            "min" : [
                -1.4241704940795898,
                -0.13417424261569977,
                -2.0204544067382812
            ],
            "type" : "VEC3"
        },
        {
            "bufferView" : 1,
            "componentType" : 5126,
            "count" : 4676,
            "type" : "VEC3"
        },
        {
            "bufferView" : 2,
            "componentType" : 5123,
            "count" : 28032,
            "type" : "SCALAR"
        },
        {
            "bufferView" : 3,
            "componentType" : 5126,
            "count" : 5276,
            "max" : [
                0.9513087868690491,
                0.2542687654495239,
                1.976236343383789
            ],
            "min" : [
                -1.1666581630706787,
                -0.1982003152370453,
                -0.7035481929779053
            ],
            "type" : "VEC3"
        },
        {
            "bufferView" : 4,
            "componentType" : 5126,
            "count" : 5276,
            "type" : "VEC3"
        },
        {
            "bufferView" : 5,
            "componentType" : 5126,
            "count" : 5276,
            "type" : "VEC2"
        },
        {
            "bufferView" : 6,
            "componentType" : 5123,
            "count" : 29952,
            "type" : "SCALAR"
        }
    ],
    "bufferViews" : [
        {
            "buffer" : 0,
            "byteLength" : 56112,
            "byteOffset" : 0
        },
        {
            "buffer" : 0,
            "byteLength" : 56112,
            "byteOffset" : 56112
        },
        {
            "buffer" : 0,
            "byteLength" : 56064,
            "byteOffset" : 112224
        },
        {
            "buffer" : 0,
            "byteLength" : 63312,
            "byteOffset" : 168288
        },
        {
            "buffer" : 0,
            "byteLength" : 63312,
            "byteOffset" : 231600
        },
        {
            "buffer" : 0,
            "byteLength" : 42208,
            "byteOffset" : 294912
        },
        {
            "buffer" : 0,
            "byteLength" : 59904,
            "byteOffset" : 337120
        }
    ],
    "buffers" : [
        {
            "byteLength" : 397024,
            "uri" : "data:application/octet-stream;base64,"
        }
    ]
}
